<?xml version="1.0" standalone="no"?>
<!DOCTYPE svg PUBLIC "-//W3C//DTD SVG 20010904//EN"
 "http://www.w3.org/TR/2001/REC-SVG-20010904/DTD/svg10.dtd">
<svg version="1.0" xmlns="http://www.w3.org/2000/svg"
 width="500.000000pt" height="500.000000pt" viewBox="0 0 500.000000 500.000000"
 preserveAspectRatio="xMidYMid meet">

<g transform="translate(0.000000,500.000000) scale(0.100000,-0.100000)"
fill="#000000" stroke="none">
<path d="M2028 4973 c6 -2 18 -2 25 0 6 3 1 5 -13 5 -14 0 -19 -2 -12 -5z"/>
<path d="M1950 4960 c-11 -8 -7 -9 15 -4 37 8 45 14 19 14 -10 0 -26 -5 -34
-10z"/>
<path d="M1858 4933 c7 -3 16 -2 19 1 4 3 -2 6 -13 5 -11 0 -14 -3 -6 -6z"/>
<path d="M1790 4920 c-9 -6 -10 -10 -3 -10 6 0 15 5 18 10 8 12 4 12 -15 0z"/>
<path d="M3210 4910 c-9 -6 -10 -10 -3 -10 6 0 15 5 18 10 8 12 4 12 -15 0z"/>
<path d="M3260 4900 c8 -5 22 -9 30 -9 10 0 8 3 -5 9 -27 12 -43 12 -25 0z"/>
<path d="M1700 4890 c-8 -5 -12 -11 -10 -14 3 -2 14 2 24 10 22 15 10 19 -14
4z"/>
<path d="M3390 4855 c14 -8 32 -14 40 -14 8 0 0 6 -19 14 -42 19 -54 19 -21 0z"/>
<path d="M1490 4810 c-8 -5 -10 -10 -5 -10 6 0 17 5 25 10 8 5 11 10 5 10 -5
0 -17 -5 -25 -10z"/>
<path d="M3560 4785 c14 -8 30 -14 35 -14 6 0 -1 6 -15 14 -14 8 -29 14 -35
14 -5 0 1 -6 15 -14z"/>
<path d="M1425 4780 c-3 -5 -2 -10 4 -10 5 0 13 5 16 10 3 6 2 10 -4 10 -5 0
-13 -4 -16 -10z"/>
<path d="M1380 4755 c-7 -8 -9 -15 -6 -15 4 0 14 7 22 15 9 8 11 15 6 15 -5 0
-15 -7 -22 -15z"/>
<path d="M3650 4741 c0 -10 30 -24 37 -17 3 2 -5 9 -16 16 -12 6 -21 7 -21 1z"/>
<path d="M1270 4700 c-9 -6 -10 -10 -3 -10 6 0 15 5 18 10 8 12 4 12 -15 0z"/>
<path d="M3793 4655 c0 -7 6 -11 14 -8 7 3 13 6 13 8 0 2 -6 5 -13 8 -8 3 -14
-1 -14 -8z"/>
<path d="M1155 4630 c-16 -11 -25 -20 -18 -20 6 0 15 5 18 11 4 6 13 8 19 6 7
-3 13 1 13 9 0 8 -1 14 -1 14 -1 0 -14 -9 -31 -20z"/>
<path d="M1080 4579 c-22 -18 -22 -19 -3 -10 12 6 25 16 28 21 9 15 3 12 -25
-11z"/>
<path d="M3935 4574 c2 -4 0 -15 -6 -25 -7 -14 -6 -17 5 -13 14 5 16 29 3 39
-4 3 -5 2 -2 -1z"/>
<path d="M3960 4556 c0 -2 8 -10 18 -17 15 -13 16 -12 3 4 -13 16 -21 21 -21
13z"/>
<path d="M985 4510 c-10 -11 -16 -20 -13 -20 3 0 15 9 28 20 13 11 19 20 13
20 -5 0 -18 -9 -28 -20z"/>
<path d="M4009 4516 c13 -16 51 -41 51 -33 0 2 -15 14 -32 27 -21 15 -28 17
-19 6z"/>
<path d="M4122 4427 c20 -20 34 -38 32 -41 -2 -3 -1 -4 3 -1 3 3 15 -2 25 -12
10 -9 18 -14 18 -11 0 3 -26 27 -57 53 -36 29 -44 34 -21 12z"/>
<path d="M834 4388 c-10 -12 -14 -18 -7 -15 6 4 13 4 16 0 2 -5 3 -3 1 3 -1 6
3 17 9 23 6 6 9 11 6 11 -3 0 -14 -10 -25 -22z"/>
<path d="M4210 4340 c0 -5 5 -10 11 -10 5 0 7 5 4 10 -3 6 -8 10 -11 10 -2 0
-4 -4 -4 -10z"/>
<path d="M4290 4260 c0 -5 5 -10 11 -10 5 0 7 5 4 10 -3 6 -8 10 -11 10 -2 0
-4 -4 -4 -10z"/>
<path d="M4351 4203 c13 -15 30 -33 37 -41 7 -7 9 -18 6 -24 -4 -6 -2 -8 3 -5
15 9 47 -29 38 -45 -6 -10 -5 -10 5 -1 11 10 2 25 -44 78 -32 36 -60 65 -64
65 -3 0 5 -12 19 -27z"/>
<path d="M615 4170 c-3 -5 -2 -10 4 -10 5 0 13 5 16 10 3 6 2 10 -4 10 -5 0
-13 -4 -16 -10z"/>
<path d="M590 4135 c-7 -9 -11 -17 -9 -20 3 -2 10 5 17 15 14 24 10 26 -8 5z"/>
<path d="M503 4028 c-54 -72 -57 -79 -38 -72 9 4 13 9 11 12 -9 9 16 32 27 25
6 -3 7 -1 3 6 -10 15 13 43 27 34 6 -3 7 -1 3 6 -4 6 -2 18 4 26 7 8 10 15 7
15 -2 0 -22 -24 -44 -52z"/>
<path d="M4469 4067 c6 -8 7 -18 3 -22 -4 -5 -1 -5 6 -1 10 6 10 11 1 22 -6 8
-14 14 -16 14 -3 0 0 -6 6 -13z"/>
<path d="M4520 3996 c0 -2 8 -10 18 -17 15 -13 16 -12 3 4 -13 16 -21 21 -21
13z"/>
<path d="M2240 3944 c-43 -15 -60 -30 -70 -60 -25 -76 49 -149 126 -124 18 6
39 8 45 4 8 -4 9 -3 5 4 -4 7 0 22 8 34 9 12 16 35 16 49 0 15 3 29 8 32 4 2
2 2 -5 1 -14 -3 -25 24 -16 39 3 7 3 9 -2 5 -4 -4 -13 -4 -19 1 -14 12 -77 22
-96 15z"/>
<path d="M429 3923 c-13 -16 -12 -17 4 -4 9 7 17 15 17 17 0 8 -8 3 -21 -13z"/>
<path d="M4566 3922 c-3 -5 1 -9 9 -9 8 0 12 4 9 9 -3 4 -7 8 -9 8 -2 0 -6 -4
-9 -8z"/>
<path d="M406 3892 c-3 -5 1 -9 9 -9 8 0 12 4 9 9 -3 4 -7 8 -9 8 -2 0 -6 -4
-9 -8z"/>
<path d="M4574 3888 c-4 -7 -3 -8 5 -4 7 4 20 -2 32 -16 l20 -23 -17 28 c-18
29 -29 34 -40 15z"/>
<path d="M385 3860 c-3 -5 -1 -10 4 -10 6 0 11 5 11 10 0 6 -2 10 -4 10 -3 0
-8 -4 -11 -10z"/>
<path d="M4640 3820 c6 -11 13 -20 16 -20 2 0 0 9 -6 20 -6 11 -13 20 -16 20
-2 0 0 -9 6 -20z"/>
<path d="M330 3770 c-6 -11 -8 -20 -6 -20 3 0 10 9 16 20 6 11 8 20 6 20 -3 0
-10 -9 -16 -20z"/>
<path d="M4650 3786 c0 -2 7 -7 16 -10 8 -3 12 -2 9 4 -6 10 -25 14 -25 6z"/>
<path d="M1344 3696 c-23 -7 -52 -20 -65 -29 -22 -16 -24 -15 -45 4 -17 16
-32 20 -80 17 l-59 -3 -5 -389 c-4 -315 -2 -392 8 -403 17 -17 143 -18 160 -1
8 8 12 50 12 125 0 73 4 113 11 113 5 0 7 -4 4 -10 -3 -6 1 -7 9 -4 9 3 16 2
16 -4 0 -6 35 -10 93 -8 108 2 137 15 188 87 19 25 37 45 41 43 3 -2 4 6 0 18
-3 11 -1 19 4 16 11 -7 14 19 16 142 2 79 -2 103 -20 144 -25 56 -26 60 -10
50 7 -4 8 -3 4 5 -4 6 -11 9 -16 6 -12 -7 -33 22 -24 36 5 8 3 9 -5 5 -7 -5
-21 0 -31 9 -46 41 -132 54 -206 31z m83 -147 c8 -7 21 -25 29 -41 23 -45 18
-228 -6 -213 -4 3 -7 -3 -6 -12 2 -35 -89 -56 -147 -34 -25 10 -44 50 -24 52
7 0 8 2 2 5 -8 3 -10 81 -5 231 1 28 125 38 157 12z"/>
<path d="M2749 3697 c-25 -7 -62 -22 -81 -34 l-36 -21 -11 24 c-9 21 -17 24
-65 24 -93 0 -86 24 -86 -291 l0 -279 23 -5 c12 -3 52 -5 87 -3 l65 3 3 212 2
211 32 11 c17 6 49 11 72 11 64 0 67 -10 66 -237 -1 -121 2 -199 9 -206 10
-10 147 -11 163 -1 4 3 8 100 8 215 l0 209 26 10 c41 16 110 12 125 -7 11 -12
15 -64 17 -212 1 -108 4 -202 7 -208 3 -9 29 -13 84 -13 l80 0 6 45 c4 24 5
134 3 243 -4 185 -6 201 -27 236 -39 63 -110 85 -207 65 -32 -6 -70 -12 -84
-12 -14 0 -19 -2 -12 -4 9 -4 4 -11 -15 -23 -25 -16 -30 -16 -45 -2 -10 8 -15
19 -12 23 3 5 -3 6 -12 2 -10 -4 -15 -2 -11 3 3 5 -2 10 -11 11 -9 0 -39 4
-67 7 -29 3 -69 0 -96 -7z"/>
<path d="M3700 3700 c-87 -7 -132 -20 -162 -46 -9 -9 -25 -17 -35 -19 -10 -1
-17 -8 -15 -15 2 -7 -3 -20 -11 -29 -47 -55 -67 -193 -42 -291 9 -36 17 -76
17 -89 0 -13 3 -19 7 -13 4 7 14 -1 26 -19 43 -65 185 -102 306 -79 41 8 79
15 84 15 21 0 34 32 35 81 0 59 -13 70 -58 53 -40 -17 -174 -17 -204 -1 -20
11 -58 67 -58 86 0 2 39 3 88 3 101 0 159 14 200 48 16 13 32 21 36 17 4 -4 6
-2 5 3 -1 6 3 30 10 55 20 69 1 138 -50 185 -22 19 -53 38 -69 42 -16 3 -27 9
-24 14 3 5 4 8 2 7 -2 0 -41 -4 -88 -8z m54 -146 c17 -16 20 -41 10 -68 -8
-22 -79 -39 -130 -31 -45 6 -49 18 -25 64 26 48 111 69 145 35z"/>
<path d="M280 3678 c-10 -21 -10 -21 3 -6 8 10 18 14 22 10 5 -4 5 -1 1 6 -10
17 -14 15 -26 -10z"/>
<path d="M2020 3688 c-19 -5 -50 -21 -67 -34 -34 -26 -46 -27 -49 -6 -5 31
-27 42 -83 42 -31 0 -62 -5 -69 -12 -14 -14 -17 -534 -3 -556 5 -9 30 -12 87
-10 l79 3 3 197 c3 227 -9 206 122 217 l75 6 3 74 c4 94 -9 104 -98 79z"/>
<path d="M4716 3687 c3 -10 9 -15 12 -12 3 3 0 11 -7 18 -10 9 -11 8 -5 -6z"/>
<path d="M2185 3681 c-6 -6 -8 -119 -5 -288 l5 -278 75 -3 c62 -2 77 0 87 14
18 25 19 534 1 552 -14 14 -150 16 -163 3z"/>
<path d="M4761 3605 c1 -19 18 -51 18 -35 0 8 -4 22 -9 30 -5 8 -9 11 -9 5z"/>
<path d="M4800 3515 c0 -5 5 -17 10 -25 5 -8 10 -10 10 -5 0 6 -5 17 -10 25
-5 8 -10 11 -10 5z"/>
<path d="M4826 3450 c4 -14 15 -43 25 -65 11 -22 16 -29 13 -15 -4 14 -15 43
-25 65 -11 22 -16 29 -13 15z"/>
<path d="M4891 3265 c0 -11 4 -27 9 -35 9 -13 10 -13 9 0 0 8 -4 24 -9 35 l-9
20 0 -20z"/>
<path d="M81 3159 c-7 -22 -11 -43 -8 -45 2 -2 9 14 16 37 7 22 11 43 8 45 -2
2 -9 -14 -16 -37z"/>
<path d="M4933 3108 c1 -20 5 -34 9 -30 4 4 3 21 -1 37 -9 30 -9 30 -8 -7z"/>
<path d="M4962 2990 c0 -14 2 -19 5 -12 2 6 2 18 0 25 -3 6 -5 1 -5 -13z"/>
<path d="M41 2974 c0 -11 3 -14 6 -6 3 7 2 16 -1 19 -3 4 -6 -2 -5 -13z"/>
<path d="M4972 2940 c0 -14 2 -19 5 -12 2 6 2 18 0 25 -3 6 -5 1 -5 -13z"/>
<path d="M32 2925 c0 -16 2 -22 5 -12 2 9 2 23 0 30 -3 6 -5 -1 -5 -18z"/>
<path d="M4978 2883 c5 -21 7 -23 10 -9 2 10 0 22 -6 28 -6 6 -7 0 -4 -19z"/>
<path d="M21 2864 c0 -11 3 -14 6 -6 3 7 2 16 -1 19 -3 4 -6 -2 -5 -13z"/>
<path d="M1852 2861 c-53 -5 -68 -11 -88 -34 -34 -40 -32 -88 5 -129 26 -29
35 -33 80 -32 29 0 56 5 62 11 6 6 19 9 28 6 12 -4 13 -3 2 5 -9 7 -10 12 -2
16 19 12 13 101 -9 128 -10 14 -16 28 -13 32 3 3 4 5 2 4 -2 0 -33 -4 -67 -7z"/>
<path d="M2453 2854 c-10 -4 -13 -43 -13 -144 l0 -139 -46 21 c-86 37 -203 15
-272 -53 -113 -110 -121 -365 -15 -488 51 -60 100 -82 183 -83 57 0 77 4 117
26 26 15 49 24 50 19 12 -31 23 -36 89 -34 38 1 72 5 77 10 4 4 6 200 5 437
l-3 429 -80 2 c-44 1 -86 -1 -92 -3z m-39 -404 l26 -10 0 -150 0 -150 -27 -12
c-39 -15 -97 -15 -127 1 -39 21 -56 69 -56 154 0 127 32 177 111 177 26 0 59
-4 73 -10z"/>
<path d="M2296 2175 c-9 -26 -7 -32 5 -12 6 10 9 21 6 23 -2 3 -7 -2 -11 -11z"/>
<path d="M12 2785 c0 -16 2 -22 5 -12 2 9 2 23 0 30 -3 6 -5 -1 -5 -18z"/>
<path d="M3 2600 c0 -47 2 -66 4 -42 2 23 2 61 0 85 -2 23 -4 4 -4 -43z"/>
<path d="M2248 2623 c7 -3 16 -2 19 1 4 3 -2 6 -13 5 -11 0 -14 -3 -6 -6z"/>
<path d="M2942 2595 c-30 -8 -59 -12 -64 -8 -7 4 -8 1 -3 -7 6 -10 4 -12 -9
-7 -9 4 -14 3 -11 -2 7 -12 -35 -42 -48 -34 -6 4 -7 1 -3 -6 10 -15 -23 -53
-37 -44 -5 3 -7 2 -4 -4 3 -5 -3 -34 -14 -64 -18 -47 -20 -68 -15 -164 7 -136
8 -145 18 -139 4 3 8 -1 8 -9 0 -30 75 -98 135 -122 52 -21 73 -24 160 -21 73
2 111 8 140 22 l40 19 0 68 c0 37 4 67 9 67 5 0 6 3 3 6 -4 4 -12 2 -19 -4
-17 -14 -120 -32 -181 -32 -58 0 -115 25 -126 54 -22 57 -23 66 -6 66 9 0 14
-3 12 -7 -11 -17 198 4 241 24 108 50 134 194 51 287 -54 62 -176 89 -277 61z
m126 -141 c38 -27 19 -117 -22 -101 -9 4 -16 2 -16 -3 0 -6 -21 -10 -46 -10
-25 0 -43 4 -40 9 3 4 -6 6 -19 3 -23 -4 -24 -2 -16 25 12 41 32 70 56 82 31
15 78 13 103 -5z"/>
<path d="M3540 2601 c-47 -15 -105 -49 -129 -75 -13 -14 -28 -23 -34 -19 -6 3
-7 1 -4 -4 4 -6 -3 -33 -15 -59 -18 -40 -22 -68 -22 -149 0 -99 6 -176 13
-170 2 2 17 -17 35 -42 37 -54 99 -102 147 -111 19 -4 70 -6 115 -5 98 2 155
25 213 88 22 24 43 40 47 37 4 -4 4 -2 1 4 -4 7 0 30 8 53 24 70 28 149 10
226 -9 39 -17 78 -18 87 -1 9 -5 14 -9 12 -4 -3 -8 -2 -8 3 0 20 -71 85 -116
105 -53 23 -187 35 -234 19z m154 -164 c14 -13 30 -36 36 -51 13 -35 14 -189
0 -181 -5 3 -7 0 -4 -9 15 -40 -55 -92 -111 -82 -39 8 -80 48 -71 71 3 9 2 14
-3 10 -28 -17 -23 167 7 217 30 52 104 64 146 25z"/>
<path d="M1180 2593 c-47 -2 -89 -8 -94 -13 -5 -5 -1 -28 9 -53 9 -25 14 -51
10 -58 -5 -7 -4 -10 2 -6 13 8 117 -268 107 -284 -5 -8 -3 -9 6 -4 10 6 12 3
8 -13 -4 -12 -3 -20 1 -17 5 2 21 -28 37 -68 16 -39 31 -76 33 -81 2 -5 -1 -6
-8 -2 -7 5 -9 1 -5 -8 3 -9 10 -16 16 -16 5 0 7 3 5 8 -3 4 32 5 78 4 78 -4
84 -3 98 20 19 28 207 512 214 549 6 34 -2 38 -79 40 -91 2 -103 -4 -118 -56
-7 -25 -17 -45 -22 -45 -5 0 -7 -4 -3 -9 3 -6 -13 -73 -36 -151 -33 -110 -45
-138 -52 -124 -8 15 -83 270 -91 311 -1 7 -5 16 -9 19 -4 4 -7 16 -7 26 0 10
-5 18 -11 18 -5 0 -7 5 -4 10 3 6 5 9 3 8 -2 -1 -41 -4 -88 -5z"/>
<path d="M1794 2591 c-44 -8 -44 -11 -44 -306 0 -246 2 -284 16 -296 18 -15
150 -17 165 -2 5 5 8 131 7 304 l-3 294 -61 5 c-33 3 -69 3 -80 1z"/>
<path d="M3185 2590 c-3 -6 1 -7 9 -4 18 7 21 14 7 14 -6 0 -13 -4 -16 -10z"/>
<path d="M3 2400 c0 -25 2 -35 4 -22 2 12 2 32 0 45 -2 12 -4 2 -4 -23z"/>
<path d="M3276 2365 c-9 -26 -7 -32 5 -12 6 10 9 21 6 23 -2 3 -7 -2 -11 -11z"/>
<path d="M3260 2322 c0 -6 -7 -18 -16 -26 -8 -9 -11 -16 -5 -16 13 0 35 39 27
48 -3 3 -6 0 -6 -6z"/>
<path d="M4991 2214 c0 -11 3 -14 6 -6 3 7 2 16 -1 19 -3 4 -6 -2 -5 -13z"/>
<path d="M22 2175 c0 -16 2 -22 5 -12 2 9 2 23 0 30 -3 6 -5 -1 -5 -18z"/>
<path d="M4982 2150 c0 -14 2 -19 5 -12 2 6 2 18 0 25 -3 6 -5 1 -5 -13z"/>
<path d="M32 2110 c0 -19 2 -27 5 -17 2 9 2 25 0 35 -3 9 -5 1 -5 -18z"/>
<path d="M4972 2095 c0 -16 2 -22 5 -12 2 9 2 23 0 30 -3 6 -5 -1 -5 -18z"/>
<path d="M46 2030 c4 -25 10 -54 15 -65 10 -24 0 48 -12 85 -6 16 -7 10 -3
-20z"/>
<path d="M4962 2040 c0 -14 2 -19 5 -12 2 6 2 18 0 25 -3 6 -5 1 -5 -13z"/>
<path d="M4941 1944 c0 -11 3 -14 6 -6 3 7 2 16 -1 19 -3 4 -6 -2 -5 -13z"/>
<path d="M81 1874 c0 -11 3 -14 6 -6 3 7 2 16 -1 19 -3 4 -6 -2 -5 -13z"/>
<path d="M4916 1867 c3 -10 9 -15 12 -12 3 3 0 11 -7 18 -10 9 -11 8 -5 -6z"/>
<path d="M91 1834 c0 -11 3 -14 6 -6 3 7 2 16 -1 19 -3 4 -6 -2 -5 -13z"/>
<path d="M4891 1764 c0 -11 3 -14 6 -6 3 7 2 16 -1 19 -3 4 -6 -2 -5 -13z"/>
<path d="M110 1765 c0 -5 5 -17 10 -25 5 -8 10 -10 10 -5 0 6 -5 17 -10 25 -5
8 -10 11 -10 5z"/>
<path d="M1105 1693 c-11 -10 -12 -20 -5 -32 12 -24 100 -104 176 -161 32 -24
67 -53 77 -65 10 -11 16 -14 12 -6 -5 8 2 7 21 -5 16 -10 31 -21 34 -24 3 -3
23 -15 45 -27 22 -13 39 -28 37 -34 -1 -6 2 -8 7 -5 14 9 121 -46 114 -57 -3
-6 -1 -7 5 -3 6 3 53 -11 104 -33 123 -52 303 -104 463 -132 172 -31 483 -33
647 -6 60 10 112 15 118 12 5 -3 10 -2 10 3 0 5 26 15 58 22 31 6 110 30 176
51 65 21 123 36 130 32 6 -3 8 -3 4 2 -4 4 41 31 100 60 59 28 134 69 167 91
33 21 63 38 66 37 3 -1 6 16 7 38 3 34 0 40 -24 50 -22 8 -41 5 -97 -16 -38
-14 -73 -22 -79 -19 -6 4 -8 2 -5 -3 4 -6 -3 -13 -16 -16 -12 -2 -71 -19 -131
-37 -634 -186 -1380 -117 -1981 185 -66 33 -119 66 -118 72 2 7 -4 10 -11 7
-16 -6 -59 13 -52 24 8 14 -45 10 -59 -5z"/>
<path d="M3557 1694 c-31 -7 -71 -21 -87 -29 -17 -9 -30 -13 -30 -10 0 3 -12
-5 -26 -18 -39 -36 -29 -62 21 -60 169 6 294 4 318 -5 22 -9 27 -18 27 -45 0
-46 -25 -137 -66 -238 -37 -92 -37 -124 0 -113 11 3 28 12 36 19 8 7 21 11 28
9 7 -1 8 0 2 3 -7 3 -5 12 6 24 9 10 21 16 27 12 5 -3 7 -1 4 4 -4 6 9 37 28
69 74 123 115 327 71 359 -48 35 -248 46 -359 19z"/>
<path d="M4815 1559 c-4 -6 -5 -12 -2 -15 2 -3 7 2 10 11 7 17 1 20 -8 4z"/>
<path d="M210 1496 c0 -2 7 -9 15 -16 13 -11 14 -10 9 4 -5 14 -24 23 -24 12z"/>
<path d="M280 1411 c0 -6 4 -13 10 -16 6 -3 7 1 4 9 -7 18 -14 21 -14 7z"/>
<path d="M4745 1399 c-4 -6 -5 -12 -2 -15 2 -3 7 2 10 11 7 17 1 20 -8 4z"/>
<path d="M289 1363 c-13 -16 -12 -17 4 -4 9 7 17 15 17 17 0 8 -8 3 -21 -13z"/>
<path d="M4680 1280 c-6 -11 -8 -20 -6 -20 3 0 10 9 16 20 6 11 8 20 6 20 -3
0 -10 -9 -16 -20z"/>
<path d="M330 1276 c0 -11 30 -66 36 -66 2 0 -3 15 -12 33 -19 36 -24 44 -24
33z"/>
<path d="M4650 1230 c-6 -11 -8 -20 -6 -20 3 0 10 9 16 20 6 11 8 20 6 20 -3
0 -10 -9 -16 -20z"/>
<path d="M4625 1189 c-4 -6 -5 -12 -2 -15 2 -3 7 2 10 11 7 17 1 20 -8 4z"/>
<path d="M406 1151 c-4 -5 -2 -12 3 -15 5 -4 12 -2 15 3 4 5 2 12 -3 15 -5 4
-12 2 -15 -3z"/>
<path d="M4573 1115 c0 -8 4 -12 9 -9 5 3 6 10 3 15 -9 13 -12 11 -12 -6z"/>
<path d="M426 1108 c3 -5 10 -6 15 -3 13 9 11 12 -6 12 -8 0 -12 -4 -9 -9z"/>
<path d="M511 1016 c-9 -11 -9 -16 0 -22 7 -4 9 -3 5 4 -3 5 0 12 6 15 7 2 10
7 7 11 -3 4 -12 0 -18 -8z"/>
<path d="M530 966 c0 -2 8 -10 18 -17 15 -13 16 -12 3 4 -13 16 -21 21 -21 13z"/>
<path d="M4459 953 c-13 -16 -12 -17 4 -4 9 7 17 15 17 17 0 8 -8 3 -21 -13z"/>
<path d="M4361 836 l-24 -31 28 27 c16 15 27 29 24 31 -2 3 -15 -10 -28 -27z"/>
<path d="M660 822 c0 -5 7 -15 15 -22 8 -7 15 -9 15 -6 0 4 -7 14 -15 22 -8 9
-15 11 -15 6z"/>
<path d="M4310 790 c-8 -5 -12 -12 -9 -15 4 -3 12 1 19 10 14 17 11 19 -10 5z"/>
<path d="M767 709 c7 -7 15 -10 18 -7 3 3 -2 9 -12 12 -14 6 -15 5 -6 -5z"/>
<path d="M4200 675 c-24 -25 -42 -45 -39 -45 3 0 25 20 49 45 24 25 42 45 39
45 -3 0 -25 -20 -49 -45z"/>
<path d="M824 669 c-3 -6 4 -21 17 -33 l23 -21 -18 22 c-10 12 -15 27 -11 32
3 6 4 11 1 11 -3 0 -8 -5 -12 -11z"/>
<path d="M4034 556 c1 -8 5 -18 8 -22 4 -3 5 1 4 10 -1 8 -5 18 -8 22 -4 3 -5
-1 -4 -10z"/>
<path d="M947 549 c7 -7 15 -10 18 -7 3 3 -2 9 -12 12 -14 6 -15 5 -6 -5z"/>
<path d="M980 526 c0 -2 8 -10 18 -17 15 -13 16 -12 3 4 -13 16 -21 21 -21 13z"/>
<path d="M1020 495 c0 -2 14 -13 30 -25 17 -12 30 -18 30 -13 0 4 -14 16 -30
25 -17 9 -30 15 -30 13z"/>
<path d="M3970 491 c0 -7 -5 -9 -12 -5 -7 5 -8 3 -3 -5 5 -9 10 -10 18 -2 6 6
8 14 4 18 -4 3 -7 1 -7 -6z"/>
<path d="M3833 415 c4 -5 -1 -17 -10 -28 -18 -19 -17 -19 5 -6 25 16 28 25 10
35 -7 4 -10 3 -5 -1z"/>
<path d="M3760 350 c-9 -6 -10 -10 -3 -10 6 0 15 5 18 10 8 12 4 12 -15 0z"/>
<path d="M1241 346 c10 -9 69 -36 69 -32 0 6 -55 36 -66 36 -4 0 -5 -2 -3 -4z"/>
<path d="M1342 301 c-11 -7 -11 -9 0 -14 9 -3 15 1 15 9 0 8 -1 14 -1 14 -1 0
-7 -4 -14 -9z"/>
<path d="M3647 291 c-41 -26 -46 -36 -10 -17 17 9 35 20 38 26 8 13 6 12 -28
-9z"/>
<path d="M1420 250 c8 -5 20 -10 25 -10 6 0 3 5 -5 10 -8 5 -19 10 -25 10 -5
0 -3 -5 5 -10z"/>
<path d="M1472 242 c-8 -6 -1 -14 24 -26 20 -9 38 -15 41 -13 2 2 -10 10 -27
17 -16 7 -27 16 -24 21 6 11 3 11 -14 1z"/>
<path d="M3510 246 c0 -2 9 -6 20 -9 11 -3 18 -1 14 4 -5 9 -34 13 -34 5z"/>
<path d="M1560 190 c8 -5 20 -10 25 -10 6 0 3 5 -5 10 -8 5 -19 10 -25 10 -5
0 -3 -5 5 -10z"/>
<path d="M1610 170 c8 -5 20 -10 25 -10 6 0 3 5 -5 10 -8 5 -19 10 -25 10 -5
0 -3 -5 5 -10z"/>
<path d="M1666 161 c-19 -7 -18 -8 4 -14 13 -3 26 -4 29 -2 2 3 -1 5 -8 5 -7
0 -9 5 -6 10 7 11 7 11 -19 1z"/>
<path d="M3350 160 c-18 -12 -2 -12 25 0 13 6 15 9 5 9 -8 0 -22 -4 -30 -9z"/>
<path d="M1725 130 c27 -12 43 -12 25 0 -8 5 -22 9 -30 9 -10 0 -8 -3 5 -9z"/>
<path d="M3230 120 c-18 -12 -2 -12 25 0 13 6 15 9 5 9 -8 0 -22 -4 -30 -9z"/>
<path d="M1778 113 c7 -3 16 -2 19 1 4 3 -2 6 -13 5 -11 0 -14 -3 -6 -6z"/>
<path d="M1862 88 c15 -5 34 -6 42 -1 10 6 1 9 -27 9 -38 1 -40 0 -15 -8z"/>
<path d="M1925 80 c-16 -7 -17 -9 -3 -9 9 -1 20 4 23 9 7 11 7 11 -20 0z"/>
<path d="M3080 80 c-20 -6 -21 -8 -5 -8 11 0 31 4 45 8 20 6 21 8 5 8 -11 0
-31 -4 -45 -8z"/>
<path d="M1968 63 c7 -3 16 -2 19 1 4 3 -2 6 -13 5 -11 0 -14 -3 -6 -6z"/>
<path d="M3028 63 c7 -3 16 -2 19 1 4 3 -2 6 -13 5 -11 0 -14 -3 -6 -6z"/>
<path d="M2035 50 c17 -4 41 -8 55 -8 22 0 22 1 -5 8 -16 4 -41 8 -55 8 -22 0
-22 -1 5 -8z"/>
<path d="M2928 43 c7 -3 16 -2 19 1 4 3 -2 6 -13 5 -11 0 -14 -3 -6 -6z"/>
<path d="M2128 33 c6 -2 18 -2 25 0 6 3 1 5 -13 5 -14 0 -19 -2 -12 -5z"/>
<path d="M2853 33 c9 -2 23 -2 30 0 6 3 -1 5 -18 5 -16 0 -22 -2 -12 -5z"/>
<path d="M2778 23 c6 -2 18 -2 25 0 6 3 1 5 -13 5 -14 0 -19 -2 -12 -5z"/>
<path d="M2338 13 c6 -2 18 -2 25 0 6 3 1 5 -13 5 -14 0 -19 -2 -12 -5z"/>
<path d="M2663 13 c9 -2 23 -2 30 0 6 3 -1 5 -18 5 -16 0 -22 -2 -12 -5z"/>
</g>
</svg>
