<?xml version="1.0" standalone="no"?>
<!DOCTYPE svg PUBLIC "-//W3C//DTD SVG 20010904//EN"
 "http://www.w3.org/TR/2001/REC-SVG-20010904/DTD/svg10.dtd">
<svg version="1.0" xmlns="http://www.w3.org/2000/svg"
 width="256.000000pt" height="256.000000pt" viewBox="0 0 256.000000 256.000000"
 preserveAspectRatio="xMidYMid meet">

<g transform="translate(0.000000,256.000000) scale(0.100000,-0.100000)"
fill="#000000" stroke="none">
<path d="M1110 2544 c-189 -25 -396 -106 -557 -216 -238 -163 -439 -448 -508
-723 -112 -439 6 -890 315 -1209 494 -511 1292 -527 1804 -36 204 195 333 437
381 714 22 131 22 133 -40 201 -30 33 -55 64 -55 70 0 5 -4 4 -9 -4 -7 -11
-10 -9 -16 8 -3 11 -11 21 -16 21 -5 0 -9 7 -9 15 0 8 -3 14 -7 13 -12 -4
-118 104 -115 116 2 6 0 8 -4 3 -9 -9 -44 22 -44 40 0 7 -3 12 -7 11 -10 -3
-93 80 -93 93 0 6 -4 7 -10 4 -5 -3 -10 -1 -10 5 0 6 -4 9 -9 5 -5 -3 -12 4
-16 15 -3 11 -11 20 -16 20 -5 0 -9 6 -9 13 0 7 -9 20 -20 30 -11 9 -20 12
-20 7 0 -6 -16 7 -35 27 -19 20 -35 44 -35 53 0 13 -1 13 -10 0 -8 -12 -10
-12 -10 -1 0 15 -86 101 -102 101 -5 0 -7 4 -4 9 3 5 -1 12 -10 15 -9 3 -12
11 -8 18 4 7 4 10 0 6 -8 -7 -72 52 -68 64 1 4 -2 8 -7 8 -5 0 -82 72 -171
160 -89 88 -167 160 -172 160 -6 0 -8 7 -4 15 3 9 0 15 -9 15 -8 0 -22 12 -32
28 -10 15 -27 34 -38 42 -11 8 -33 28 -49 44 -16 17 -34 31 -40 32 -6 0 -54
-5 -106 -12z m296 -1031 c238 -131 430 -241 426 -245 -4 -4 -203 -111 -442
-238 -403 -213 -435 -228 -439 -207 -5 34 11 927 17 927 3 0 200 -107 438
-237z"/>
</g>
</svg>
